<?xml version="1.0" standalone="no"?>
<!DOCTYPE svg PUBLIC "-//W3C//DTD SVG 20010904//EN"
 "http://www.w3.org/TR/2001/REC-SVG-20010904/DTD/svg10.dtd">
<svg version="1.0" xmlns="http://www.w3.org/2000/svg"
 width="137.000000pt" height="193.000000pt" viewBox="0 0 137.000000 193.000000"
 preserveAspectRatio="xMidYMid meet">
<metadata>
Created by potrace 1.16, written by Peter Selinger 2001-2019
</metadata>
<g transform="translate(0.000000,193.000000) scale(0.100000,-0.100000)"
fill="#000000" stroke="none">
<path d="M600 1903 c-23 -20 -33 -40 -37 -70 -5 -41 -8 -43 -38 -43 -43 0 -96
-37 -118 -83 -16 -31 -17 -42 -7 -72 16 -50 47 -67 112 -63 45 3 53 6 53 23 0
17 -6 20 -43 17 -31 -3 -49 2 -63 14 -60 55 30 144 116 113 19 -7 38 -10 41
-6 4 4 2 25 -5 47 -10 33 -9 45 4 70 29 55 98 46 140 -19 25 -39 46 -36 57 6
5 18 17 37 28 43 43 23 80 -30 80 -111 0 -38 -1 -39 -34 -39 -19 0 -69 -17
-117 -42 -114 -56 -218 -160 -273 -273 -47 -96 -105 -267 -135 -395 -19 -80
-20 -95 -8 -107 21 -21 31 -2 51 95 24 113 89 300 139 397 52 101 137 187 233
237 149 78 227 57 307 -84 20 -33 27 -61 27 -97 0 -44 -5 -56 -35 -89 -19 -22
-52 -51 -74 -66 -47 -33 -53 -46 -41 -83 5 -15 18 -91 30 -167 20 -138 32
-168 57 -143 9 9 10 22 4 47 -5 19 -17 92 -27 161 l-17 127 69 65 c65 61 70
64 90 50 29 -18 57 -78 58 -123 1 -29 -3 -36 -22 -38 -18 -3 -26 5 -42 43 -21
49 -43 56 -48 14 -3 -31 31 -86 62 -100 36 -17 73 -3 91 32 15 27 15 35 0 87
-9 31 -25 70 -36 85 l-21 28 69 -3 c62 -3 68 -1 71 17 7 52 -117 155 -188 155
-19 0 -31 9 -44 33 -25 42 -84 105 -117 122 -22 12 -27 23 -33 71 -15 127 -90
182 -163 120 l-28 -24 -28 24 c-41 35 -106 33 -147 -3z m626 -411 c10 -6 30
-22 43 -36 l24 -26 -66 0 -67 0 0 29 c0 16 -3 36 -6 45 -5 12 -1 14 24 7 16
-5 38 -13 48 -19z"/>
<path d="M946 1554 c-32 -31 -6 -81 36 -71 33 9 42 34 23 63 -18 28 -37 30
-59 8z"/>
<path d="M825 830 c-3 -5 10 -45 29 -89 20 -43 36 -81 36 -84 0 -3 -9 -3 -20
0 -26 7 -26 -13 -1 -27 34 -18 60 -12 67 15 7 30 -2 59 -16 50 -5 -3 -25 28
-44 69 -36 78 -40 84 -51 66z"/>
<path d="M410 789 c-17 -24 -41 -61 -52 -81 -17 -30 -24 -35 -35 -26 -20 16
-27 2 -17 -34 11 -38 31 -45 59 -23 16 12 17 16 6 24 -10 7 -2 25 39 86 35 52
49 80 42 87 -7 7 -21 -4 -42 -33z"/>
<path d="M145 546 c-82 -37 -127 -129 -133 -273 -4 -89 -2 -108 17 -147 35
-71 120 -126 196 -126 150 0 253 169 215 351 -16 76 -84 173 -135 195 -43 17
-120 18 -160 0z m65 -23 c0 -5 -17 -16 -38 -25 -38 -18 -94 -94 -112 -154 -4
-16 -9 -21 -9 -12 -2 33 39 124 67 150 22 21 46 34 90 47 1 1 2 -2 2 -6z m77
-8 c29 -8 90 -85 108 -136 31 -87 11 -227 -40 -281 -55 -60 -138 -78 -201 -45
-78 40 -114 108 -114 212 0 41 2 46 19 40 14 -4 24 7 50 59 32 65 79 116 107
116 9 0 14 8 13 18 -3 29 0 34 19 28 9 -2 27 -7 39 -11z"/>
<path d="M966 534 c-128 -11 -140 -14 -164 -38 -22 -22 -27 -37 -30 -95 -4
-63 -2 -72 20 -94 18 -18 40 -26 86 -32 54 -6 70 -13 124 -57 90 -72 139 -98
194 -104 106 -11 161 58 171 213 4 80 3 92 -19 133 -20 38 -32 48 -74 61 -68
23 -146 26 -308 13z m174 -24 c11 -7 2 -10 -31 -10 -69 0 -91 -38 -35 -60 20
-8 20 -9 1 -9 -11 -1 -37 -6 -57 -12 -53 -14 -49 -37 14 -74 29 -16 54 -36 56
-44 3 -8 -18 2 -45 22 -66 49 -112 67 -167 67 -69 0 -94 35 -58 80 18 23 55
29 292 48 8 1 22 -3 30 -8z m117 -11 c39 -10 48 -18 64 -53 10 -23 19 -58 19
-78 0 -40 -32 -103 -60 -118 -31 -17 -103 -11 -135 10 -27 18 -28 20 -8 20 25
0 43 27 43 64 0 39 -11 57 -44 72 -18 7 -24 13 -14 14 31 0 63 -20 88 -57 46
-67 91 -77 111 -25 24 63 -16 120 -104 148 -52 16 -22 18 40 3z m1 -53 c34
-17 48 -51 37 -85 -9 -31 -20 -26 -56 23 -33 48 -78 75 -126 78 -19 1 -13 3
17 7 50 7 80 2 128 -23z m-134 -56 c20 -7 26 -16 26 -40 0 -44 -21 -46 -64 -5
-21 19 -42 35 -47 35 -6 0 -7 5 -4 10 8 13 56 13 89 0z m-198 -36 c17 -2 59
-25 95 -50 134 -96 209 -115 277 -74 38 23 38 21 13 -29 -48 -93 -147 -79
-291 39 -59 49 -75 56 -140 64 -61 8 -80 19 -80 47 0 19 17 20 126 3z"/>
<path d="M862 480 c-34 -14 -39 -40 -13 -62 28 -22 74 -24 91 -3 11 13 10 21
-7 43 -23 30 -38 35 -71 22z m45 -48 c-10 -2 -26 -1 -35 3 -14 5 -14 8 -2 15
8 5 22 4 34 -3 19 -10 20 -11 3 -15z"/>
<path d="M1190 325 c-15 -40 -9 -60 20 -63 23 -3 72 22 60 30 -3 2 -20 16 -37
32 l-32 29 -11 -28z"/>
</g>
</svg>
