<?xml version="1.0" standalone="no"?>
<!DOCTYPE svg PUBLIC "-//W3C//DTD SVG 20010904//EN" "http://www.w3.org/TR/2001/REC-SVG-20010904/DTD/svg10.dtd">
<svg
  version="1.0"
  xmlns="http://www.w3.org/2000/svg"
  width="137.000000pt"
  height="193.000000pt"
  viewBox="0 0 137.000000 193.000000"
  preserveAspectRatio="xMidYMid meet"
>
  <metadata>
    Created by potrace 1.16, written by Peter Selinger 2001-2019
  </metadata>
  <g
    transform="translate(0.000000,193.000000) scale(0.100000,-0.100000)"
    fill="currentColor"
    stroke="none"
  >
    <path
      d="M600 1903 c-23 -20 -33 -40 -37 -70 -5 -41 -8 -43 -38 -43 -43 0 -96
-37 -118 -83 -16 -31 -17 -42 -7 -72 16 -50 47 -67 112 -63 45 3 53 6 53 23 0
17 -6 20 -43 17 -31 -3 -49 2 -63 14 -60 55 30 144 116 113 19 -7 38 -10 41
-6 4 4 2 25 -5 47 -10 33 -9 45 4 70 29 55 98 46 140 -19 25 -39 46 -36 57 6
5 18 17 37 28 43 43 23 80 -30 80 -111 0 -38 -1 -39 -34 -39 -19 0 -69 -17
-117 -42 -114 -56 -218 -160 -273 -273 -47 -96 -105 -267 -135 -395 -19 -80
-20 -95 -8 -107 21 -21 31 -2 51 95 24 113 89 300 139 397 52 101 137 187 233
237 149 78 227 57 307 -84 20 -33 27 -61 27 -97 0 -44 -5 -56 -35 -89 -19 -22
-52 -51 -74 -66 -47 -33 -53 -46 -41 -83 5 -15 18 -91 30 -167 20 -138 32
-168 57 -143 9 9 10 22 4 47 -5 19 -17 92 -27 161 l-17 127 69 65 c65 61 70
64 90 50 29 -18 57 -78 58 -123 1 -29 -3 -36 -22 -38 -18 -3 -26 5 -42 43 -21
49 -43 56 -48 14 -3 -31 31 -86 62 -100 36 -17 73 -3 91 32 15 27 15 35 0 87
-9 31 -25 70 -36 85 l-21 28 69 -3 c62 -3 68 -1 71 17 7 52 -117 155 -188 155
-19 0 -31 9 -44 33 -25 42 -84 105 -117 122 -22 12 -27 23 -33 71 -15 127 -90
182 -163 120 l-28 -24 -28 24 c-41 35 -106 33 -147 -3z m626 -411 c10 -6 30
-22 43 -36 l24 -26 -66 0 -67 0 0 29 c0 16 -3 36 -6 45 -5 12 -1 14 24 7 16
-5 38 -13 48 -19z"
    />path>
  </g>
</svg>