<?xml version="1.0" standalone="no"?>
<!DOCTYPE svg PUBLIC "-//W3C//DTD SVG 20010904//EN" "http://www.w3.org/TR/2001/REC-SVG-20010904/DTD/svg10.dtd">
<svg
  version="1.0"
  xmlns="http://www.w3.org/2000/svg"
  width="152.000000pt"
  height="210.000000pt"
  viewBox="0 0 152.000000 210.000000"
  preserveAspectRatio="xMidYMid meet"
>
  <metadata>
    Created by potrace 1.16, written by Peter Selinger 2001-2019
  </metadata>
  <g
    transform="translate(0.000000,210.000000) scale(0.100000,-0.100000)"
    fill="currentColor"
    stroke="none"
  >
    <path
      d="M490 2054 c-37 -59 -44 -95 -37 -194 l5 -78 -37 10 c-64 18 -162 3
-268 -42 -121 -50 -127 -53 -131 -73 -5 -25 98 -121 163 -151 32 -16 87 -33
122 -39 l62 -11 25 -55 c34 -76 44 -125 56 -270 6 -68 18 -140 26 -160 17 -41
76 -106 117 -127 15 -8 27 -21 27 -29 0 -20 90 -45 162 -45 80 0 127 20 134
60 4 16 11 30 16 30 20 0 69 43 100 88 32 46 33 50 34 157 0 106 2 114 42 213
23 56 42 111 42 122 0 14 9 21 38 25 168 27 269 83 317 174 18 36 8 61 -24 61
-9 0 -55 19 -102 41 -74 37 -93 42 -159 43 -41 1 -87 -2 -102 -7 l-28 -7 0 72
c0 113 -45 238 -86 238 -19 0 -23 -7 -29 -57 -9 -72 -28 -120 -62 -155 -26
-28 -28 -28 -153 -28 -126 0 -126 0 -146 28 -30 40 -36 60 -43 137 -5 63 -8
70 -28 73 -18 3 -29 -7 -53 -44z m40 -81 c0 -14 9 -45 21 -67 l21 -42 -28 -42
c-22 -33 -30 -39 -36 -28 -11 20 -14 165 -4 194 10 28 26 19 26 -15z m508 -24
c15 -63 15 -119 1 -156 -10 -26 -12 -27 -23 -9 -6 10 -22 32 -34 47 l-24 29
26 52 c14 29 26 60 26 70 0 36 17 17 28 -33z m-126 -135 c34 -6 42 -14 83 -84
25 -42 45 -80 45 -83 0 -4 14 -36 30 -70 38 -81 38 -126 1 -213 -16 -38 -35
-88 -42 -112 -9 -33 -16 -41 -28 -36 -9 3 -42 15 -74 25 -105 34 -289 19 -387
-31 -23 -12 -43 -20 -44 -18 -1 2 -7 37 -13 78 -6 41 -25 112 -43 157 l-33 83
27 35 c15 19 35 54 46 77 10 24 38 75 62 115 42 70 44 72 88 76 80 6 244 7
282 1z m-512 -64 c79 -15 82 -20 47 -92 -16 -34 -41 -77 -55 -96 -25 -32 -29
-34 -77 -30 -27 3 -75 17 -105 32 -60 29 -136 94 -123 106 29 24 170 74 254
89 4 1 30 -4 59 -9z m964 -31 c50 -23 93 -44 95 -46 9 -7 -63 -72 -107 -96
-46 -25 -164 -52 -197 -45 -13 2 -95 161 -95 183 0 2 17 13 38 24 26 14 57 20
106 21 60 0 81 -5 160 -41z m-399 -539 l50 -25 3 -63 c3 -57 0 -67 -27 -104
-44 -59 -60 -68 -107 -58 -60 14 -160 12 -228 -6 l-61 -16 -37 42 c-39 44 -58
92 -58 147 0 27 7 37 39 59 63 41 123 53 256 51 106 -2 126 -5 170 -27z m-141
-286 c35 -5 46 -11 46 -25 0 -25 -12 -30 -83 -32 -115 -2 -171 29 -89 51 47
13 68 14 126 6z"
    />
    <path
      d="M847 1572 c-22 -24 -21 -35 2 -56 26 -23 59 -13 67 21 5 19 2 30 -11
40 -25 18 -39 16 -58 -5z"
    />
    <path
      d="M610 1551 c-15 -29 3 -61 34 -61 30 0 48 22 44 52 -4 32 -62 39 -78
9z"
    />
    <path
      d="M581 1111 c-27 -27 -27 -71 0 -105 25 -31 57 -33 87 -6 52 49 35 123
-30 128 -27 2 -43 -3 -57 -17z m67 -53 c-5 -34 -38 -37 -38 -4 0 20 5 26 21
26 15 0 20 -5 17 -22z"
    />
    <path
      d="M860 1110 c-26 -26 -25 -60 1 -94 35 -44 89 -30 108 27 8 24 8 42 2
61 -9 22 -16 26 -51 26 -27 0 -47 -7 -60 -20z m65 -46 c0 -10 -8 -20 -17 -22
-18 -3 -26 27 -11 42 12 11 28 0 28 -20z"
    />
    <path
      d="M1066 841 c-5 -7 13 -34 43 -67 28 -31 50 -63 49 -73 -2 -12 6 -17
30 -19 31 -3 33 -2 30 25 -2 17 -9 28 -18 28 -8 1 -40 27 -71 59 -37 39 -58
55 -63 47z"
    />
    <path
      d="M513 705 c-17 -35 -33 -54 -43 -52 -11 1 -14 -5 -12 -28 4 -37 4 -37
37 -29 21 5 25 11 21 27 -3 11 6 42 20 68 26 52 30 69 14 69 -6 0 -22 -25 -37
-55z"
    />
    <path
      d="M1277 654 c-4 -4 -7 -16 -7 -28 0 -11 -14 -34 -30 -51 l-30 -31 -6
-245 c-3 -146 -2 -249 4 -257 6 -8 50 -19 111 -26 101 -12 103 -12 152 12 l49
25 0 239 c0 209 -2 244 -17 269 -10 16 -21 29 -25 29 -4 0 -8 11 -8 24 0 14
-3 27 -7 29 -15 9 -178 18 -186 11z m83 -58 c0 -15 -18 -31 -26 -23 -7 7 7 37
17 37 5 0 9 -6 9 -14z m-50 -43 c0 -8 -13 -13 -32 -13 l-31 0 23 25 c24 25 39
20 40 -12z m120 31 c0 -24 -24 -44 -53 -43 -29 0 -30 1 -9 9 12 5 22 16 22 25
0 8 9 15 20 15 11 0 20 -3 20 -6z m-20 -156 l0 -81 -86 6 c-47 2 -86 6 -88 8
-1 2 -1 38 2 79 l4 75 84 -3 84 -3 0 -81z m76 -53 c-2 -7 -14 -15 -25 -18 -20
-5 -21 -1 -21 68 0 69 2 74 23 77 20 3 22 -1 25 -56 2 -32 1 -64 -2 -71z m4
-80 c0 -40 -3 -46 -31 -61 -32 -16 -32 -16 -26 8 4 12 7 36 7 51 0 24 14 38
48 46 1 1 2 -19 2 -44z m-124 25 l44 0 0 -37 c0 -21 -4 -43 -8 -48 -4 -7 -39
-9 -89 -7 l-83 4 0 50 0 51 46 -7 c26 -3 66 -6 90 -6z m124 -180 c0 -67 -1
-70 -30 -85 l-30 -16 0 72 c0 57 4 75 18 85 35 27 42 17 42 -56z m-112 54 c20
-6 22 -12 22 -81 l0 -75 -77 7 c-43 4 -81 9 -85 12 -5 2 -8 35 -8 74 l0 69 63
0 c34 0 72 -3 85 -6z"
    />
    <path
      d="M160 521 c-47 -4 -95 -13 -107 -20 -34 -17 -53 -63 -53 -125 0 -78
24 -103 111 -115 59 -8 74 -15 130 -61 203 -166 343 -122 357 111 4 76 2 93
-18 134 -32 66 -64 78 -215 81 -66 1 -158 -1 -205 -5z m195 -28 c-62 -8 -75
-13 -75 -34 0 -11 8 -23 17 -26 12 -5 3 -11 -32 -22 -27 -9 -50 -21 -52 -28
-2 -6 21 -28 51 -47 31 -20 56 -41 56 -47 0 -6 -22 5 -49 25 -27 20 -65 43
-85 51 -33 14 -35 17 -21 31 19 19 19 24 -1 52 -16 24 -53 29 -85 12 -29 -16
-23 -44 14 -63 l32 -16 -37 0 c-46 -1 -64 24 -47 63 15 32 29 37 119 46 77 7
250 10 195 3z m160 -15 c48 -22 71 -128 40 -188 -21 -41 -53 -60 -103 -60 -39
0 -102 22 -102 36 0 3 4 3 10 -1 16 -10 50 33 50 64 0 44 -10 62 -44 78 l-31
14 30 -6 c19 -4 49 -26 81 -60 28 -30 58 -55 67 -55 28 0 50 46 44 88 -8 45
-41 74 -111 96 l-51 16 49 -6 c27 -3 59 -10 71 -16z m-45 -34 c44 -18 60 -39
60 -78 0 -36 -20 -43 -42 -15 -53 68 -80 88 -131 97 l-52 10 62 1 c37 1 79 -6
103 -15z m-332 -19 c-3 -12 -29 -8 -43 7 -7 6 -1 8 18 6 15 -2 26 -7 25 -13z
m217 -47 c19 -9 25 -19 25 -44 0 -18 -4 -35 -8 -38 -5 -3 -28 13 -51 34 -24
22 -50 40 -59 41 -10 1 -7 4 8 9 37 12 56 11 85 -2z m-160 -50 c22 -11 49 -28
60 -37 11 -10 48 -34 81 -54 75 -45 153 -51 198 -16 30 24 31 21 12 -25 -18
-44 -52 -66 -101 -66 -48 0 -96 23 -171 82 -85 67 -106 78 -149 78 -50 0 -89
19 -93 46 -3 19 1 20 60 16 35 -2 81 -13 103 -24z"
    />
    <path
      d="M416 299 c-3 -17 -6 -35 -6 -40 0 -12 61 -11 80 1 12 8 10 14 -15 40
-37 38 -51 38 -59 -1z"
    />
  </g>
</svg>