<?xml version="1.0" standalone="no"?>
<!DOCTYPE svg PUBLIC "-//W3C//DTD SVG 20010904//EN" "http://www.w3.org/TR/2001/REC-SVG-20010904/DTD/svg10.dtd">
<svg
  version="1.0"
  xmlns="http://www.w3.org/2000/svg"
  width="152.000000pt"
  height="210.000000pt"
  viewBox="0 0 152.000000 210.000000"
  preserveAspectRatio="xMidYMid meet"
>
  <metadata>
    Created by potrace 1.16, written by Peter Selinger 2001-2019
  </metadata>
  <g
    transform="translate(0.000000,210.000000) scale(0.100000,-0.100000)"
    fill="currentColor"
    stroke="none"
  >
    <path
      d="M490 2054 c-37 -59 -44 -95 -37 -194 l5 -78 -37 10 c-64 18 -162 3
-268 -42 -121 -50 -127 -53 -131 -73 -5 -25 98 -121 163 -151 32 -16 87 -33
122 -39 l62 -11 25 -55 c34 -76 44 -125 56 -270 6 -68 18 -140 26 -160 17 -41
76 -106 117 -127 15 -8 27 -21 27 -29 0 -20 90 -45 162 -45 80 0 127 20 134
60 4 16 11 30 16 30 20 0 69 43 100 88 32 46 33 50 34 157 0 106 2 114 42 213
23 56 42 111 42 122 0 14 9 21 38 25 168 27 269 83 317 174 18 36 8 61 -24 61
-9 0 -55 19 -102 41 -74 37 -93 42 -159 43 -41 1 -87 -2 -102 -7 l-28 -7 0 72
c0 113 -45 238 -86 238 -19 0 -23 -7 -29 -57 -9 -72 -28 -120 -62 -155 -26
-28 -28 -28 -153 -28 -126 0 -126 0 -146 28 -30 40 -36 60 -43 137 -5 63 -8
70 -28 73 -18 3 -29 -7 -53 -44z m40 -81 c0 -14 9 -45 21 -67 l21 -42 -28 -42
c-22 -33 -30 -39 -36 -28 -11 20 -14 165 -4 194 10 28 26 19 26 -15z m508 -24
c15 -63 15 -119 1 -156 -10 -26 -12 -27 -23 -9 -6 10 -22 32 -34 47 l-24 29
26 52 c14 29 26 60 26 70 0 36 17 17 28 -33z m-126 -135 c34 -6 42 -14 83 -84
25 -42 45 -80 45 -83 0 -4 14 -36 30 -70 38 -81 38 -126 1 -213 -16 -38 -35
-88 -42 -112 -9 -33 -16 -41 -28 -36 -9 3 -42 15 -74 25 -105 34 -289 19 -387
-31 -23 -12 -43 -20 -44 -18 -1 2 -7 37 -13 78 -6 41 -25 112 -43 157 l-33 83
27 35 c15 19 35 54 46 77 10 24 38 75 62 115 42 70 44 72 88 76 80 6 244 7
282 1z m-512 -64 c79 -15 82 -20 47 -92 -16 -34 -41 -77 -55 -96 -25 -32 -29
-34 -77 -30 -27 3 -75 17 -105 32 -60 29 -136 94 -123 106 29 24 170 74 254
89 4 1 30 -4 59 -9z m964 -31 c50 -23 93 -44 95 -46 9 -7 -63 -72 -107 -96
-46 -25 -164 -52 -197 -45 -13 2 -95 161 -95 183 0 2 17 13 38 24 26 14 57 20
106 21 60 0 81 -5 160 -41z m-399 -539 l50 -25 3 -63 c3 -57 0 -67 -27 -104
-44 -59 -60 -68 -107 -58 -60 14 -160 12 -228 -6 l-61 -16 -37 42 c-39 44 -58
92 -58 147 0 27 7 37 39 59 63 41 123 53 256 51 106 -2 126 -5 170 -27z m-141
-286 c35 -5 46 -11 46 -25 0 -25 -12 -30 -83 -32 -115 -2 -171 29 -89 51 47
13 68 14 126 6z"
    />
   
  </g>
</svg>