<?xml version="1.0" standalone="no"?>
<!DOCTYPE svg PUBLIC "-//W3C//DTD SVG 20010904//EN" "http://www.w3.org/TR/2001/REC-SVG-20010904/DTD/svg10.dtd">
<svg
  version="1.0"
  xmlns="http://www.w3.org/2000/svg"
  width="175.000000pt"
  height="177.000000pt"
  viewBox="0 0 175.000000 177.000000"
  preserveAspectRatio="xMidYMid meet"
>
  <metadata>
    Created by potrace 1.16, written by Peter Selinger 2001-2019
  </metadata>
  <g
    transform="translate(0.000000,177.000000) scale(0.100000,-0.100000)"
    fill="currentColor"
    stroke="none"
  >
    <path
      d="M383 1762 c-20 -13 -36 -101 -31 -171 4 -51 13 -83 37 -128 l33 -61
-21 -41 c-37 -71 -54 -159 -55 -281 -1 -131 14 -192 64 -252 36 -44 129 -92
208 -109 81 -17 293 -6 417 21 170 37 254 89 302 188 24 50 28 68 27 142 -1
99 -31 219 -73 295 l-29 51 23 28 c36 45 49 106 41 199 -7 94 -14 127 -27 127
-6 0 -57 -47 -114 -104 l-105 -104 -67 21 c-84 27 -235 28 -331 3 l-63 -17
-67 60 c-37 32 -80 73 -97 91 -37 39 -58 51 -72 42z m122 -149 c74 -69 76 -72
55 -83 -13 -7 -42 -30 -66 -52 l-44 -40 -25 53 c-32 69 -39 108 -30 164 8 54
5 55 110 -42z m775 -66 c-5 -27 -19 -60 -29 -73 l-18 -23 -19 21 c-11 11 -36
31 -57 45 l-38 24 78 73 78 74 8 -46 c5 -27 4 -65 -3 -95z m-280 -9 c147 -43
244 -139 291 -287 26 -83 35 -211 20 -269 -15 -55 -77 -123 -137 -151 -113
-53 -381 -91 -513 -73 -131 19 -225 82 -256 170 -19 58 -20 213 -1 303 15 71
50 149 66 149 6 0 10 6 10 14 0 16 52 64 111 103 96 63 273 81 409 41z"
    />
  
  </g>
</svg>