<?xml version="1.0" standalone="no"?>
<!DOCTYPE svg PUBLIC "-//W3C//DTD SVG 20010904//EN"
 "http://www.w3.org/TR/2001/REC-SVG-20010904/DTD/svg10.dtd">
<svg version="1.0" xmlns="http://www.w3.org/2000/svg"
 width="175.000000pt" height="177.000000pt" viewBox="0 0 175.000000 177.000000"
 preserveAspectRatio="xMidYMid meet">
<metadata>
Created by potrace 1.16, written by Peter Selinger 2001-2019
</metadata>
<g transform="translate(0.000000,177.000000) scale(0.100000,-0.100000)"
fill="#000000" stroke="none">
<path d="M383 1762 c-20 -13 -36 -101 -31 -171 4 -51 13 -83 37 -128 l33 -61
-21 -41 c-37 -71 -54 -159 -55 -281 -1 -131 14 -192 64 -252 36 -44 129 -92
208 -109 81 -17 293 -6 417 21 170 37 254 89 302 188 24 50 28 68 27 142 -1
99 -31 219 -73 295 l-29 51 23 28 c36 45 49 106 41 199 -7 94 -14 127 -27 127
-6 0 -57 -47 -114 -104 l-105 -104 -67 21 c-84 27 -235 28 -331 3 l-63 -17
-67 60 c-37 32 -80 73 -97 91 -37 39 -58 51 -72 42z m122 -149 c74 -69 76 -72
55 -83 -13 -7 -42 -30 -66 -52 l-44 -40 -25 53 c-32 69 -39 108 -30 164 8 54
5 55 110 -42z m775 -66 c-5 -27 -19 -60 -29 -73 l-18 -23 -19 21 c-11 11 -36
31 -57 45 l-38 24 78 73 78 74 8 -46 c5 -27 4 -65 -3 -95z m-280 -9 c147 -43
244 -139 291 -287 26 -83 35 -211 20 -269 -15 -55 -77 -123 -137 -151 -113
-53 -381 -91 -513 -73 -131 19 -225 82 -256 170 -19 58 -20 213 -1 303 15 71
50 149 66 149 6 0 10 6 10 14 0 16 52 64 111 103 96 63 273 81 409 41z"/>
<path d="M611 1356 c-16 -19 -11 -46 12 -60 25 -16 52 4 52 40 0 24 -5 30 -26
32 -14 2 -31 -4 -38 -12z"/>
<path d="M1032 1358 c-25 -25 -6 -68 29 -68 27 0 50 39 38 62 -11 20 -49 24
-67 6z"/>
<path d="M747 1225 c-96 -36 -132 -90 -125 -191 5 -77 26 -110 91 -142 48 -24
147 -39 189 -29 45 12 118 69 144 114 46 77 18 152 -83 226 -35 25 -53 31
-110 33 -43 2 -82 -2 -106 -11z m208 -72 c47 -36 79 -93 70 -124 -10 -29 -63
-87 -96 -105 -41 -21 -145 -18 -197 6 -52 24 -77 72 -69 138 9 82 71 123 181
120 61 -2 74 -6 111 -35z"/>
<path d="M711 1113 c-31 -39 -11 -93 35 -93 52 0 75 74 32 104 -31 22 -43 20
-67 -11z m44 -33 c3 -5 1 -10 -4 -10 -6 0 -11 5 -11 10 0 6 2 10 4 10 3 0 8
-4 11 -10z"/>
<path d="M890 1111 c-14 -27 -13 -47 6 -65 40 -41 109 7 86 59 -15 32 -76 36
-92 6z"/>
<path d="M485 620 c-34 -34 -52 -46 -60 -40 -16 13 -25 2 -25 -32 0 -26 3 -28
36 -28 31 0 36 3 31 19 -3 13 9 32 39 62 40 40 56 69 36 69 -4 0 -30 -22 -57
-50z"/>
<path d="M1190 658 c0 -6 14 -33 31 -60 17 -26 29 -55 25 -63 -6 -17 37 -50
54 -40 5 3 10 22 10 42 0 27 -3 34 -15 29 -11 -4 -26 11 -51 49 -33 52 -54 69
-54 43z"/>
<path d="M183 598 c-36 -41 -103 -146 -137 -218 -38 -78 -52 -162 -36 -204 17
-46 31 -25 33 49 2 58 9 85 40 149 21 43 40 77 43 74 3 -3 -2 -33 -10 -66 -16
-60 -13 -96 7 -89 6 2 21 50 34 106 13 57 32 119 42 138 l17 35 25 -34 c89
-118 129 -217 129 -321 0 -108 -34 -152 -130 -168 -79 -12 -114 -2 -157 49
-26 31 -32 34 -38 20 -9 -23 28 -74 68 -94 23 -12 49 -15 101 -12 97 6 139 28
168 86 31 64 31 191 0 272 -26 67 -143 244 -163 248 -8 1 -24 -8 -36 -20z"/>
<path d="M1360 424 c-137 -12 -153 -16 -182 -44 -25 -25 -28 -35 -28 -93 0
-36 3 -73 6 -82 10 -24 58 -45 106 -45 46 0 65 -10 149 -79 69 -57 123 -81
180 -81 100 0 150 75 153 230 1 74 -2 90 -23 124 -34 54 -74 68 -206 71 -60 2
-130 1 -155 -1z m121 -38 c-58 -12 -75 -31 -46 -52 16 -12 13 -14 -28 -25 -58
-14 -67 -35 -25 -57 17 -9 48 -32 67 -51 22 -20 26 -27 11 -17 -14 9 -45 30
-70 46 -25 17 -55 33 -67 36 -24 7 -30 19 -13 29 28 17 -7 75 -44 75 -24 0
-66 -26 -66 -41 0 -5 15 -18 33 -29 l32 -20 -30 0 c-54 0 -71 38 -37 80 16 19
32 24 108 30 49 4 121 7 159 7 l70 1 -54 -12z m133 2 c48 -9 62 -17 77 -42 30
-50 34 -107 10 -154 -32 -63 -92 -85 -157 -57 -39 16 -39 16 -17 33 49 39 34
118 -27 139 -19 7 -27 12 -17 12 36 2 83 -27 111 -68 53 -75 106 -63 106 25 0
37 -5 47 -32 68 -18 13 -55 31 -83 39 -61 19 -48 21 29 5z m6 -50 c42 -21 45
-26 48 -65 2 -24 -1 -43 -5 -43 -5 0 -31 24 -59 54 -41 44 -59 55 -100 63
l-49 11 60 1 c45 1 73 -5 105 -21z m-335 -9 c4 -6 5 -13 2 -16 -8 -7 -47 7
-47 18 0 13 37 11 45 -2z m234 -64 c12 -12 8 -75 -6 -75 -3 0 -25 18 -50 40
-25 22 -53 41 -62 41 -9 1 -2 5 14 9 37 10 85 2 104 -15z m-131 -67 c138 -93
153 -101 209 -102 39 0 60 5 83 22 l31 23 -16 -37 c-8 -20 -15 -38 -15 -40 0
-2 -13 -10 -30 -19 -65 -34 -145 -11 -235 68 -65 57 -105 77 -155 77 -53 0
-80 15 -80 43 0 22 2 23 70 16 62 -5 79 -12 138 -51z"/>
<path d="M1565 218 c-3 -7 -6 -24 -7 -38 -3 -22 1 -25 30 -28 18 -2 40 2 48 8
11 10 9 17 -17 41 -34 32 -47 36 -54 17z"/>
<path d="M148 279 l-58 -29 0 -64 0 -64 51 -37 50 -38 67 31 67 32 3 64 3 65
-48 35 c-26 20 -55 35 -63 35 -8 0 -41 -13 -72 -30z m108 -30 c31 -19 34 -25
34 -68 0 -46 -1 -47 -46 -69 l-47 -23 -38 27 c-35 24 -39 31 -39 68 0 39 3 43
43 63 53 27 53 27 93 2z"/>
</g>
</svg>
