<?xml version="1.0" standalone="no"?>
<!DOCTYPE svg PUBLIC "-//W3C//DTD SVG 20010904//EN" "http://www.w3.org/TR/2001/REC-SVG-20010904/DTD/svg10.dtd">
<svg
  version="1.0"
  xmlns="http://www.w3.org/2000/svg"
  width="150.000000pt"
  height="218.000000pt"
  viewBox="0 0 150.000000 218.000000"
  preserveAspectRatio="xMidYMid meet"
>
  <metadata>
    Created by potrace 1.16, written by Peter Selinger 2001-2019
  </metadata>
  <g
    transform="translate(0.000000,218.000000) scale(0.100000,-0.100000)"
    fill="currentColor"
    stroke="none"
  >
    <path
      d="M523 2174 c-29 -12 -13 -41 32 -58 35 -14 51 -28 72 -64 33 -57 54
-131 42 -154 -8 -15 -13 -15 -56 -2 -77 24 -207 -4 -268 -57 -44 -39 -44 -61
-2 -92 53 -40 75 -48 175 -63 53 -8 98 -17 100 -19 2 -2 -1 -33 -9 -69 -18
-91 -2 -165 61 -291 27 -55 57 -123 65 -150 8 -28 23 -60 32 -70 19 -20 55
-99 88 -188 26 -74 48 -63 96 47 21 48 47 98 59 111 11 12 32 64 46 116 14 51
41 123 59 159 51 101 67 168 64 263 l-4 82 92 6 c105 8 167 32 208 81 23 27
24 33 12 52 -8 11 -38 34 -68 50 -47 26 -65 30 -134 30 -44 1 -97 -3 -117 -7
-31 -6 -37 -5 -32 7 3 7 1 17 -5 20 -13 9 16 92 46 132 13 18 42 44 63 58 44
29 49 41 23 55 -12 6 -37 3 -78 -10 -71 -22 -131 -74 -176 -155 -17 -30 -34
-54 -39 -54 -4 0 -13 -13 -20 -30 -11 -26 -18 -30 -49 -30 -33 0 -39 4 -54 35
-10 20 -24 35 -34 35 -12 0 -25 16 -37 47 -11 26 -35 64 -53 84 -47 51 -166
107 -200 93z m609 -112 c-11 -15 -28 -51 -37 -80 -18 -53 -21 -57 -49 -46 -14
6 -14 11 5 43 20 33 88 111 97 111 2 0 -6 -12 -16 -28z m-400 -75 c16 -32 17
-41 7 -48 -17 -10 -14 -14 -37 53 -22 66 -5 63 30 -5z m83 -107 c11 -35 45
-49 103 -43 48 5 55 9 64 34 8 25 13 28 41 23 53 -9 57 -12 57 -39 0 -35 20
-40 77 -21 25 9 63 16 82 15 l36 -1 -30 -10 c-72 -25 -134 -128 -116 -193 9
-32 8 -35 -13 -35 -47 0 -112 -104 -81 -130 16 -13 35 -5 35 15 0 10 6 11 29
2 l29 -11 -18 -50 c-10 -28 -32 -80 -49 -116 -17 -36 -39 -98 -49 -138 -20
-79 -32 -96 -74 -106 -42 -10 -36 16 14 57 62 51 50 67 -52 67 -94 0 -106 -11
-66 -63 42 -54 32 -75 -17 -37 -16 13 -32 41 -42 78 -9 31 -33 86 -52 121 -19
35 -43 86 -53 114 l-18 52 29 12 c16 7 29 17 29 24 0 6 8 2 18 -10 21 -25 47
-14 38 17 -9 27 -74 92 -93 92 -12 0 -14 7 -7 38 13 61 9 97 -15 131 -26 36
-88 71 -126 71 -14 0 -25 5 -25 10 0 20 96 11 145 -15 55 -27 78 -20 73 24 -2
19 2 27 22 32 47 13 68 10 75 -11z m588 -92 c48 -25 -47 -61 -146 -56 l-69 3
21 27 c34 42 136 56 194 26z m-844 -4 c32 -13 71 -49 71 -67 0 -9 -194 25
-220 38 -36 19 -37 23 -7 35 35 14 113 11 156 -6z m571 -241 c0 -13 -3 -13
-15 -3 -8 7 -12 16 -9 21 8 13 24 1 24 -18z m-457 11 c8 -8 -3 -34 -14 -34 -5
0 -9 9 -9 20 0 19 11 26 23 14z m232 -404 c-3 -5 -10 -10 -16 -10 -5 0 -9 5
-9 10 0 6 7 10 16 10 8 0 12 -4 9 -10z m12 -170 c-11 -27 -23 -47 -26 -44 -3
3 -13 25 -22 49 l-17 45 43 0 43 0 -21 -50z"
    />
    <path
      d="M1040 913 c0 -5 23 -43 49 -87 27 -43 47 -84 44 -92 -5 -15 42 -38
58 -28 16 9 10 46 -9 51 -10 2 -40 40 -66 84 -27 43 -55 79 -62 79 -8 0 -14
-3 -14 -7z"
    />
    <path
      d="M625 817 c-53 -72 -74 -93 -88 -89 -15 4 -18 0 -15 -24 3 -25 8 -29
37 -32 30 -3 33 -1 28 18 -4 16 13 45 63 113 62 83 73 107 51 107 -4 0 -38
-42 -76 -93z"
    />
    <path
      d="M1218 639 c0 -8 -2 -19 -2 -26 -1 -6 -11 -22 -22 -35 -12 -13 -27
-33 -33 -45 -13 -26 -15 -481 -2 -501 5 -8 47 -17 112 -24 98 -10 108 -9 146
10 l41 21 6 83 c3 46 6 155 5 243 -1 163 -8 195 -45 218 -7 4 -11 13 -9 20 11
30 -13 41 -104 45 -72 4 -91 2 -93 -9z m49 -25 c-3 -3 -12 -4 -19 -1 -8 3 -5
6 6 6 11 1 17 -2 13 -5z m106 -1 c-7 -2 -21 -2 -30 0 -10 3 -4 5 12 5 17 0 24
-2 18 -5z m-63 -27 c0 -8 -7 -16 -15 -20 -15 -5 -21 14 -8 27 11 12 23 8 23
-7z m-57 -26 c4 -17 0 -20 -25 -20 -30 0 -31 0 -13 20 10 11 21 20 25 20 4 0
10 -9 13 -20z m115 -5 c-9 -19 -18 -25 -42 -24 -30 0 -30 1 -8 11 12 6 22 17
22 25 0 7 9 13 20 13 17 0 18 -3 8 -25z m-23 -57 c3 -2 8 -39 11 -81 8 -88 17
-82 -108 -70 l-68 6 0 80 0 80 84 -3 84 -3 0 -81z m95 -67 c0 -67 -7 -81 -39
-81 -10 0 -24 127 -16 140 4 6 17 10 31 10 23 0 24 -3 24 -69z m0 -144 c0 -37
-4 -46 -25 -55 -35 -16 -35 -16 -35 16 0 57 11 74 53 81 4 0 7 -19 7 -42z m-83
19 c2 -2 0 -23 -3 -47 l-6 -44 -84 3 -84 3 0 51 0 51 87 -7 c48 -4 89 -9 90
-10z m78 -182 c-5 -48 -11 -67 -25 -74 -10 -6 -21 -10 -24 -10 -3 0 -6 31 -6
70 0 66 2 70 28 84 34 18 36 12 27 -70z m-87 -17 l3 -78 -63 6 c-115 11 -108
6 -108 86 l0 70 83 -3 82 -3 3 -78z"
    />
    <path
      d="M152 600 c-121 -11 -153 -47 -142 -161 7 -71 20 -85 89 -94 80 -10
88 -14 148 -63 84 -69 125 -92 181 -99 113 -13 173 63 176 225 2 160 -42 196
-244 198 -69 1 -162 -1 -208 -6z m198 -27 c-24 -3 -50 -9 -57 -15 -20 -16 -15
-38 10 -47 19 -7 17 -9 -20 -15 -79 -14 -92 -43 -30 -70 18 -7 43 -26 57 -41
28 -31 17 -27 -50 21 -25 17 -62 38 -83 45 -33 12 -35 14 -17 21 25 9 26 42 1
67 -16 16 -26 18 -52 11 -59 -17 -62 -45 -8 -72 l34 -18 -36 0 c-63 0 -82 50
-34 90 19 16 126 27 250 27 44 0 60 -2 35 -4z m137 -4 c52 -14 79 -48 89 -115
5 -34 1 -50 -20 -87 -15 -25 -37 -48 -49 -51 -43 -11 -97 -6 -129 14 l-33 20
27 0 c31 0 42 24 36 81 -2 27 -10 38 -38 52 l-35 19 35 -6 c26 -5 47 -20 83
-61 27 -30 55 -55 62 -55 26 0 45 31 45 74 0 53 -27 81 -102 107 -59 21 -41
25 29 8z m11 -57 c25 -18 32 -30 32 -57 0 -19 -4 -36 -9 -40 -5 -3 -28 17 -52
44 -39 47 -66 63 -129 75 -14 2 9 4 50 3 61 -2 81 -7 108 -25z m-353 -1 c10
-17 -11 -21 -31 -6 -18 14 -18 14 3 15 12 0 24 -4 28 -9z m208 -50 c28 -11 38
-30 30 -60 -7 -29 -20 -26 -64 14 -22 19 -45 35 -52 36 -16 1 24 17 45 18 9 1
28 -3 41 -8z m-152 -52 c20 -10 49 -29 65 -42 63 -51 140 -87 188 -87 49 0
106 22 106 42 0 6 3 9 6 6 11 -12 -38 -96 -62 -107 -62 -28 -133 -4 -231 78
-67 55 -98 71 -142 71 -50 0 -91 20 -91 44 0 21 3 22 63 18 34 -3 78 -13 98
-23z"
    />
    <path
      d="M425 398 c-3 -7 -6 -24 -7 -38 -3 -21 2 -26 24 -28 15 -2 36 2 48 8
20 11 20 12 -11 41 -34 32 -47 36 -54 17z"
    />
  </g>
</svg>