<?xml version="1.0" standalone="no"?>
<!DOCTYPE svg PUBLIC "-//W3C//DTD SVG 20010904//EN" "http://www.w3.org/TR/2001/REC-SVG-20010904/DTD/svg10.dtd">
<svg
  version="1.0"
  xmlns="http://www.w3.org/2000/svg"
  width="150.000000pt"
  height="218.000000pt"
  viewBox="0 0 150.000000 218.000000"
  preserveAspectRatio="xMidYMid meet"
>
  <metadata>
    Created by potrace 1.16, written by Peter Selinger 2001-2019
  </metadata>
  <g
    transform="translate(0.000000,218.000000) scale(0.100000,-0.100000)"
    fill="currentColor"
    stroke="none"
  >
    <path
      d="M523 2174 c-29 -12 -13 -41 32 -58 35 -14 51 -28 72 -64 33 -57 54
-131 42 -154 -8 -15 -13 -15 -56 -2 -77 24 -207 -4 -268 -57 -44 -39 -44 -61
-2 -92 53 -40 75 -48 175 -63 53 -8 98 -17 100 -19 2 -2 -1 -33 -9 -69 -18
-91 -2 -165 61 -291 27 -55 57 -123 65 -150 8 -28 23 -60 32 -70 19 -20 55
-99 88 -188 26 -74 48 -63 96 47 21 48 47 98 59 111 11 12 32 64 46 116 14 51
41 123 59 159 51 101 67 168 64 263 l-4 82 92 6 c105 8 167 32 208 81 23 27
24 33 12 52 -8 11 -38 34 -68 50 -47 26 -65 30 -134 30 -44 1 -97 -3 -117 -7
-31 -6 -37 -5 -32 7 3 7 1 17 -5 20 -13 9 16 92 46 132 13 18 42 44 63 58 44
29 49 41 23 55 -12 6 -37 3 -78 -10 -71 -22 -131 -74 -176 -155 -17 -30 -34
-54 -39 -54 -4 0 -13 -13 -20 -30 -11 -26 -18 -30 -49 -30 -33 0 -39 4 -54 35
-10 20 -24 35 -34 35 -12 0 -25 16 -37 47 -11 26 -35 64 -53 84 -47 51 -166
107 -200 93z m609 -112 c-11 -15 -28 -51 -37 -80 -18 -53 -21 -57 -49 -46 -14
6 -14 11 5 43 20 33 88 111 97 111 2 0 -6 -12 -16 -28z m-400 -75 c16 -32 17
-41 7 -48 -17 -10 -14 -14 -37 53 -22 66 -5 63 30 -5z m83 -107 c11 -35 45
-49 103 -43 48 5 55 9 64 34 8 25 13 28 41 23 53 -9 57 -12 57 -39 0 -35 20
-40 77 -21 25 9 63 16 82 15 l36 -1 -30 -10 c-72 -25 -134 -128 -116 -193 9
-32 8 -35 -13 -35 -47 0 -112 -104 -81 -130 16 -13 35 -5 35 15 0 10 6 11 29
2 l29 -11 -18 -50 c-10 -28 -32 -80 -49 -116 -17 -36 -39 -98 -49 -138 -20
-79 -32 -96 -74 -106 -42 -10 -36 16 14 57 62 51 50 67 -52 67 -94 0 -106 -11
-66 -63 42 -54 32 -75 -17 -37 -16 13 -32 41 -42 78 -9 31 -33 86 -52 121 -19
35 -43 86 -53 114 l-18 52 29 12 c16 7 29 17 29 24 0 6 8 2 18 -10 21 -25 47
-14 38 17 -9 27 -74 92 -93 92 -12 0 -14 7 -7 38 13 61 9 97 -15 131 -26 36
-88 71 -126 71 -14 0 -25 5 -25 10 0 20 96 11 145 -15 55 -27 78 -20 73 24 -2
19 2 27 22 32 47 13 68 10 75 -11z m588 -92 c48 -25 -47 -61 -146 -56 l-69 3
21 27 c34 42 136 56 194 26z m-844 -4 c32 -13 71 -49 71 -67 0 -9 -194 25
-220 38 -36 19 -37 23 -7 35 35 14 113 11 156 -6z m571 -241 c0 -13 -3 -13
-15 -3 -8 7 -12 16 -9 21 8 13 24 1 24 -18z m-457 11 c8 -8 -3 -34 -14 -34 -5
0 -9 9 -9 20 0 19 11 26 23 14z m232 -404 c-3 -5 -10 -10 -16 -10 -5 0 -9 5
-9 10 0 6 7 10 16 10 8 0 12 -4 9 -10z m12 -170 c-11 -27 -23 -47 -26 -44 -3
3 -13 25 -22 49 l-17 45 43 0 43 0 -21 -50z"
    />
   
  </g>
</svg>