<svg xmlns="http://www.w3.org/2000/svg" xmlns:xlink="http://www.w3.org/1999/xlink" version="1.1" width="256" height="256" viewBox="0 0 256 256" xml:space="preserve">
<g style="stroke: none; stroke-width: 0; stroke-dasharray: none; stroke-linecap: butt; stroke-linejoin: miter; stroke-miterlimit: 10; fill: none; fill-rule: nonzero; opacity: 1;" transform="translate(1.4065934065934016 1.4065934065934016) scale(2.81 2.81)">
	<path d="M 64.244 25.755 c -0.781 -0.781 -2.047 -0.781 -2.828 0 L 45 42.172 L 28.583 25.755 c -0.78 -0.781 -2.048 -0.781 -2.828 0 c -0.781 0.781 -0.781 2.047 0 2.828 L 42.172 45 L 25.755 61.416 c -0.781 0.781 -0.781 2.047 0 2.828 c 0.39 0.391 0.902 0.586 1.414 0.586 s 1.024 -0.195 1.414 -0.586 L 45 47.828 l 16.416 16.416 c 0.391 0.391 0.902 0.586 1.414 0.586 s 1.023 -0.195 1.414 -0.586 c 0.781 -0.781 0.781 -2.047 0 -2.828 L 47.828 45 l 16.416 -16.416 C 65.025 27.803 65.025 26.536 64.244 25.755 z" style="stroke: none; stroke-width: 1; stroke-dasharray: none; stroke-linecap: butt; stroke-linejoin: miter; stroke-miterlimit: 10; fill: rgba(255, 255, 255, 1); fill-rule: nonzero; opacity: 1;" transform=" matrix(1 0 0 1 0 0) " stroke-linecap="round"/>
	<path d="M 45 0 C 20.187 0 0 20.187 0 45 c 0 24.813 20.187 45 45 45 c 24.813 0 45 -20.187 45 -45 C 90 20.187 69.813 0 45 0 z M 45 86 C 22.393 86 4 67.607 4 45 S 22.393 4 45 4 s 41 18.393 41 41 S 67.607 86 45 86 z" style="stroke: none; stroke-width: 1; stroke-dasharray: none; stroke-linecap: butt; stroke-linejoin: miter; stroke-miterlimit: 10; fill: rgba(255, 255, 255, 1); fill-rule: nonzero; opacity: 1;" transform=" matrix(1 0 0 1 0 0) " stroke-linecap="round"/>
</g>
</svg>